<mxfile host="app.diagrams.net" modified="2024-07-03T13:50:29.566Z" agent="Mozilla/5.0 (Windows NT 10.0; Win64; x64) AppleWebKit/537.36 (KHTML, like Gecko) Chrome/126.0.0.0 Safari/537.36" etag="Gb9VIKn5KpyqfCiLom4P" version="24.6.4" type="github">
  <diagram name="Pagina-1" id="KGB1MFUIUHuM_CKeYUmo">
    <mxGraphModel dx="1036" dy="508" grid="1" gridSize="10" guides="1" tooltips="1" connect="1" arrows="1" fold="1" page="1" pageScale="1" pageWidth="827" pageHeight="1169" math="0" shadow="0">
      <root>
        <mxCell id="0" />
        <mxCell id="1" parent="0" />
        <mxCell id="OP7ZereWCnQ9Ca52C5Og-3" style="rounded=0;orthogonalLoop=1;jettySize=auto;html=1;exitX=0;exitY=0.5;exitDx=0;exitDy=0;startArrow=classic;startFill=1;endArrow=none;endFill=0;" edge="1" parent="1" source="jnoL-hKxLzZSAzVpftZo-5">
          <mxGeometry relative="1" as="geometry">
            <mxPoint x="240" y="200" as="targetPoint" />
          </mxGeometry>
        </mxCell>
        <mxCell id="jnoL-hKxLzZSAzVpftZo-5" value="" style="whiteSpace=wrap;html=1;aspect=fixed;rotation=-45;" parent="1" vertex="1">
          <mxGeometry x="260" y="100" width="80" height="80" as="geometry" />
        </mxCell>
        <mxCell id="OP7ZereWCnQ9Ca52C5Og-4" style="edgeStyle=orthogonalEdgeStyle;rounded=0;orthogonalLoop=1;jettySize=auto;html=1;exitX=1;exitY=0.5;exitDx=0;exitDy=0;endArrow=none;endFill=0;" edge="1" parent="1" source="jnoL-hKxLzZSAzVpftZo-1">
          <mxGeometry relative="1" as="geometry">
            <mxPoint x="240" y="200" as="targetPoint" />
          </mxGeometry>
        </mxCell>
        <mxCell id="jnoL-hKxLzZSAzVpftZo-1" value="" style="rounded=0;whiteSpace=wrap;html=1;" parent="1" vertex="1">
          <mxGeometry x="40" y="160" width="120" height="80" as="geometry" />
        </mxCell>
        <mxCell id="jnoL-hKxLzZSAzVpftZo-2" value="" style="rounded=0;whiteSpace=wrap;html=1;" parent="1" vertex="1">
          <mxGeometry x="440" y="160" width="120" height="80" as="geometry" />
        </mxCell>
        <mxCell id="OP7ZereWCnQ9Ca52C5Og-1" style="rounded=0;orthogonalLoop=1;jettySize=auto;html=1;exitX=0;exitY=0.5;exitDx=0;exitDy=0;exitPerimeter=0;entryX=0.5;entryY=1;entryDx=0;entryDy=0;endArrow=none;endFill=0;" edge="1" parent="1" source="jnoL-hKxLzZSAzVpftZo-3" target="jnoL-hKxLzZSAzVpftZo-5">
          <mxGeometry relative="1" as="geometry" />
        </mxCell>
        <mxCell id="jnoL-hKxLzZSAzVpftZo-3" value="" style="shape=or;whiteSpace=wrap;html=1;rotation=-135;" parent="1" vertex="1">
          <mxGeometry x="190" y="20" width="60" height="80" as="geometry" />
        </mxCell>
        <mxCell id="OP7ZereWCnQ9Ca52C5Og-2" style="rounded=0;orthogonalLoop=1;jettySize=auto;html=1;exitX=0;exitY=0.5;exitDx=0;exitDy=0;exitPerimeter=0;entryX=0;entryY=0.5;entryDx=0;entryDy=0;endArrow=none;endFill=0;" edge="1" parent="1" source="jnoL-hKxLzZSAzVpftZo-4" target="jnoL-hKxLzZSAzVpftZo-5">
          <mxGeometry relative="1" as="geometry" />
        </mxCell>
        <mxCell id="jnoL-hKxLzZSAzVpftZo-4" value="" style="shape=or;whiteSpace=wrap;html=1;rotation=-135;direction=south;" parent="1" vertex="1">
          <mxGeometry x="340" y="30" width="80" height="60" as="geometry" />
        </mxCell>
        <mxCell id="OP7ZereWCnQ9Ca52C5Og-5" style="edgeStyle=orthogonalEdgeStyle;rounded=0;orthogonalLoop=1;jettySize=auto;html=1;exitX=1;exitY=0.5;exitDx=0;exitDy=0;endArrow=none;endFill=0;" edge="1" parent="1">
          <mxGeometry relative="1" as="geometry">
            <mxPoint x="440" y="199.5" as="targetPoint" />
            <mxPoint x="360" y="199.5" as="sourcePoint" />
          </mxGeometry>
        </mxCell>
        <mxCell id="OP7ZereWCnQ9Ca52C5Og-6" style="rounded=0;orthogonalLoop=1;jettySize=auto;html=1;exitX=0.5;exitY=1;exitDx=0;exitDy=0;startArrow=classic;startFill=1;endArrow=none;endFill=0;" edge="1" parent="1" source="jnoL-hKxLzZSAzVpftZo-5">
          <mxGeometry relative="1" as="geometry">
            <mxPoint x="360" y="200" as="targetPoint" />
            <mxPoint x="302" y="208" as="sourcePoint" />
          </mxGeometry>
        </mxCell>
      </root>
    </mxGraphModel>
  </diagram>
</mxfile>
